<svg width="26" height="26" viewBox="0 0 26 26" fill="none" xmlns="http://www.w3.org/2000/svg">
<g id="vuesax/outline/clipboard-tick">
<g id="clipboard-tick">
<path id="Vector" d="M11.7112 18.3626C11.5053 18.3626 11.2995 18.2868 11.137 18.1243L9.51199 16.4993C9.19783 16.1851 9.19783 15.6651 9.51199 15.3509C9.82616 15.0368 10.3462 15.0368 10.6603 15.3509L11.7112 16.4018L15.4703 12.6426C15.7845 12.3284 16.3045 12.3284 16.6187 12.6426C16.9328 12.9568 16.9328 13.4768 16.6187 13.7909L12.2853 18.1243C12.1337 18.2868 11.917 18.3626 11.7112 18.3626Z" fill="white"/>
<path id="Vector_2" d="M15.167 7.31258H10.8337C9.79366 7.31258 7.85449 7.31258 7.85449 4.33341C7.85449 1.35425 9.79366 1.35425 10.8337 1.35425H15.167C16.207 1.35425 18.1462 1.35425 18.1462 4.33341C18.1462 5.37341 18.1462 7.31258 15.167 7.31258ZM10.8337 2.97925C9.76116 2.97925 9.47949 2.97925 9.47949 4.33341C9.47949 5.68758 9.76116 5.68758 10.8337 5.68758H15.167C16.5212 5.68758 16.5212 5.40591 16.5212 4.33341C16.5212 2.97925 16.2395 2.97925 15.167 2.97925H10.8337Z" fill="white"/>
<path id="Vector_3" d="M16.25 24.6458H9.75C3.66167 24.6458 2.4375 21.8508 2.4375 17.3333V10.8333C2.4375 5.8933 4.225 3.7808 8.62333 3.5533C9.0675 3.53163 9.4575 3.86747 9.47917 4.32247C9.50083 4.77747 9.15417 5.1458 8.71 5.16747C5.63333 5.3408 4.0625 6.26163 4.0625 10.8333V17.3333C4.0625 21.3416 4.85333 23.0208 9.75 23.0208H16.25C21.1467 23.0208 21.9375 21.3416 21.9375 17.3333V10.8333C21.9375 6.26163 20.3667 5.3408 17.29 5.16747C16.8458 5.1458 16.4992 4.7558 16.5208 4.31163C16.5425 3.86747 16.9217 3.5208 17.3767 3.54247C21.775 3.7808 23.5625 5.8933 23.5625 10.8225V17.3225C23.5625 21.8508 22.3383 24.6458 16.25 24.6458Z" fill="white"/>
</g>
</g>
</svg>
