<svg width="26" height="26" viewBox="0 0 26 26" fill="none" xmlns="http://www.w3.org/2000/svg">
<g id="vuesax/outline/archive-book">
<g id="archive-book">
<path id="Vector" d="M17.3333 24.6459H8.66667C4.7125 24.6459 2.4375 22.3709 2.4375 18.4167V7.58342C2.4375 3.62925 4.7125 1.35425 8.66667 1.35425H17.3333C21.2875 1.35425 23.5625 3.62925 23.5625 7.58342V18.4167C23.5625 22.3709 21.2875 24.6459 17.3333 24.6459ZM8.66667 2.97925C5.56833 2.97925 4.0625 4.48508 4.0625 7.58342V18.4167C4.0625 21.5151 5.56833 23.0209 8.66667 23.0209H17.3333C20.4317 23.0209 21.9375 21.5151 21.9375 18.4167V7.58342C21.9375 4.48508 20.4317 2.97925 17.3333 2.97925H8.66667Z" fill="white"/>
<path id="Vector_2" d="M9.74967 12.0359C9.56551 12.0359 9.38134 12.0034 9.20801 11.9276C8.70967 11.7109 8.39551 11.2234 8.39551 10.6926V2.16675C8.39551 1.72258 8.76384 1.35425 9.20801 1.35425H16.7913C17.2355 1.35425 17.6038 1.72258 17.6038 2.16675V10.6817C17.6038 11.2234 17.2897 11.7109 16.7913 11.9167C16.3038 12.1334 15.7297 12.0359 15.3289 11.6676L12.9997 9.5334L10.6705 11.6784C10.4105 11.9168 10.0855 12.0359 9.74967 12.0359ZM12.9997 7.81094C13.3247 7.81094 13.6605 7.93006 13.9205 8.16839L15.9788 10.0642V2.97925H10.0205V10.0642L12.0789 8.16839C12.3389 7.93006 12.6747 7.81094 12.9997 7.81094Z" fill="white"/>
<path id="Vector_3" d="M18.9587 15.9792H14.3545C13.9103 15.9792 13.542 15.6109 13.542 15.1667C13.542 14.7226 13.9103 14.3542 14.3545 14.3542H18.9587C19.4028 14.3542 19.7712 14.7226 19.7712 15.1667C19.7712 15.6109 19.4028 15.9792 18.9587 15.9792Z" fill="white"/>
<path id="Vector_4" d="M18.9583 20.3125H9.75C9.30583 20.3125 8.9375 19.9442 8.9375 19.5C8.9375 19.0558 9.30583 18.6875 9.75 18.6875H18.9583C19.4025 18.6875 19.7708 19.0558 19.7708 19.5C19.7708 19.9442 19.4025 20.3125 18.9583 20.3125Z" fill="white"/>
</g>
</g>
</svg>
