<svg width="20" height="20" viewBox="0 0 20 20" fill="none" xmlns="http://www.w3.org/2000/svg">
<g id="vuesax/outline/calendar">
<g id="calendar">
<path id="Vector" d="M6.66675 4.79175C6.32508 4.79175 6.04175 4.50841 6.04175 4.16675V1.66675C6.04175 1.32508 6.32508 1.04175 6.66675 1.04175C7.00841 1.04175 7.29175 1.32508 7.29175 1.66675V4.16675C7.29175 4.50841 7.00841 4.79175 6.66675 4.79175Z" fill="#292D32"/>
<path id="Vector_2" d="M13.3333 4.79175C12.9916 4.79175 12.7083 4.50841 12.7083 4.16675V1.66675C12.7083 1.32508 12.9916 1.04175 13.3333 1.04175C13.6749 1.04175 13.9583 1.32508 13.9583 1.66675V4.16675C13.9583 4.50841 13.6749 4.79175 13.3333 4.79175Z" fill="#292D32"/>
<path id="Vector_3" d="M7.08333 12.0834C6.975 12.0834 6.86667 12.0584 6.76667 12.0168C6.65833 11.9751 6.575 11.9168 6.49167 11.8418C6.34167 11.6834 6.25 11.4751 6.25 11.2501C6.25 11.1418 6.275 11.0334 6.31667 10.9334C6.35833 10.8334 6.41667 10.7418 6.49167 10.6584C6.575 10.5834 6.65833 10.5251 6.76667 10.4834C7.06667 10.3584 7.44167 10.4251 7.675 10.6584C7.825 10.8168 7.91667 11.0334 7.91667 11.2501C7.91667 11.3001 7.90833 11.3584 7.9 11.4168C7.89167 11.4668 7.875 11.5168 7.85 11.5668C7.83333 11.6168 7.80833 11.6668 7.775 11.7168C7.75 11.7584 7.70833 11.8001 7.675 11.8418C7.51667 11.9918 7.3 12.0834 7.08333 12.0834Z" fill="#292D32"/>
<path id="Vector_4" d="M10.0001 12.0832C9.89175 12.0832 9.78341 12.0582 9.68341 12.0166C9.57508 11.9749 9.49175 11.9166 9.40842 11.8416C9.25842 11.6832 9.16675 11.4749 9.16675 11.2499C9.16675 11.1416 9.19175 11.0332 9.23342 10.9332C9.27508 10.8332 9.33342 10.7416 9.40842 10.6582C9.49175 10.5832 9.57508 10.5249 9.68341 10.4832C9.98341 10.3499 10.3584 10.4249 10.5917 10.6582C10.7417 10.8166 10.8334 11.0332 10.8334 11.2499C10.8334 11.2999 10.8251 11.3582 10.8167 11.4166C10.8084 11.4666 10.7917 11.5166 10.7667 11.5666C10.7501 11.6166 10.7251 11.6666 10.6917 11.7166C10.6667 11.7582 10.6251 11.7999 10.5917 11.8416C10.4334 11.9916 10.2167 12.0832 10.0001 12.0832Z" fill="#292D32"/>
<path id="Vector_5" d="M12.9166 12.0832C12.8083 12.0832 12.6999 12.0582 12.5999 12.0166C12.4916 11.9749 12.4083 11.9166 12.3249 11.8416C12.2916 11.7999 12.2583 11.7582 12.2249 11.7166C12.1916 11.6666 12.1666 11.6166 12.1499 11.5666C12.1249 11.5166 12.1083 11.4666 12.0999 11.4166C12.0916 11.3582 12.0833 11.2999 12.0833 11.2499C12.0833 11.0332 12.1749 10.8166 12.3249 10.6582C12.4083 10.5832 12.4916 10.5249 12.5999 10.4832C12.9083 10.3499 13.2749 10.4249 13.5083 10.6582C13.6583 10.8166 13.7499 11.0332 13.7499 11.2499C13.7499 11.2999 13.7416 11.3582 13.7333 11.4166C13.7249 11.4666 13.7083 11.5166 13.6833 11.5666C13.6666 11.6166 13.6416 11.6666 13.6083 11.7166C13.5833 11.7582 13.5416 11.7999 13.5083 11.8416C13.3499 11.9916 13.1333 12.0832 12.9166 12.0832Z" fill="#292D32"/>
<path id="Vector_6" d="M7.08333 15C6.975 15 6.86667 14.975 6.76667 14.9333C6.66667 14.8917 6.575 14.8333 6.49167 14.7583C6.34167 14.6 6.25 14.3833 6.25 14.1667C6.25 14.0583 6.275 13.95 6.31667 13.85C6.35833 13.7417 6.41667 13.65 6.49167 13.575C6.8 13.2667 7.36667 13.2667 7.675 13.575C7.825 13.7333 7.91667 13.95 7.91667 14.1667C7.91667 14.3833 7.825 14.6 7.675 14.7583C7.51667 14.9083 7.3 15 7.08333 15Z" fill="#292D32"/>
<path id="Vector_7" d="M10.0001 15C9.78341 15 9.56675 14.9083 9.40842 14.7583C9.25842 14.6 9.16675 14.3833 9.16675 14.1667C9.16675 14.0583 9.19175 13.95 9.23342 13.85C9.27508 13.7417 9.33342 13.65 9.40842 13.575C9.71675 13.2667 10.2834 13.2667 10.5917 13.575C10.6667 13.65 10.7251 13.7417 10.7667 13.85C10.8084 13.95 10.8334 14.0583 10.8334 14.1667C10.8334 14.3833 10.7417 14.6 10.5917 14.7583C10.4334 14.9083 10.2167 15 10.0001 15Z" fill="#292D32"/>
<path id="Vector_8" d="M12.9166 14.9999C12.6999 14.9999 12.4833 14.9083 12.3249 14.7583C12.2499 14.6833 12.1916 14.5916 12.1499 14.4833C12.1083 14.3833 12.0833 14.2749 12.0833 14.1666C12.0833 14.0583 12.1083 13.9499 12.1499 13.8499C12.1916 13.7416 12.2499 13.6499 12.3249 13.5749C12.5166 13.3833 12.8083 13.2916 13.0749 13.3499C13.1333 13.3583 13.1833 13.3749 13.2333 13.3999C13.2833 13.4166 13.3333 13.4416 13.3833 13.4749C13.4249 13.4999 13.4666 13.5416 13.5083 13.5749C13.6583 13.7333 13.7499 13.9499 13.7499 14.1666C13.7499 14.3833 13.6583 14.5999 13.5083 14.7583C13.3499 14.9083 13.1333 14.9999 12.9166 14.9999Z" fill="#292D32"/>
<path id="Vector_9" d="M17.0834 8.19995H2.91675C2.57508 8.19995 2.29175 7.91662 2.29175 7.57495C2.29175 7.23328 2.57508 6.94995 2.91675 6.94995H17.0834C17.4251 6.94995 17.7084 7.23328 17.7084 7.57495C17.7084 7.91662 17.4251 8.19995 17.0834 8.19995Z" fill="#292D32"/>
<path id="Vector_10" d="M13.3333 18.9584H6.66667C3.625 18.9584 1.875 17.2084 1.875 14.1667V7.08342C1.875 4.04175 3.625 2.29175 6.66667 2.29175H13.3333C16.375 2.29175 18.125 4.04175 18.125 7.08342V14.1667C18.125 17.2084 16.375 18.9584 13.3333 18.9584ZM6.66667 3.54175C4.28333 3.54175 3.125 4.70008 3.125 7.08342V14.1667C3.125 16.5501 4.28333 17.7084 6.66667 17.7084H13.3333C15.7167 17.7084 16.875 16.5501 16.875 14.1667V7.08342C16.875 4.70008 15.7167 3.54175 13.3333 3.54175H6.66667Z" fill="#292D32"/>
</g>
</g>
</svg>
