<svg width="16" height="16" viewBox="0 0 16 16" fill="none" xmlns="http://www.w3.org/2000/svg">
<g id="vuesax/outline/call">
<g id="call">
<path id="Vector" d="M11.6334 15.1666C10.88 15.1666 10.0867 14.9866 9.26671 14.6399C8.46671 14.2999 7.66004 13.8333 6.87337 13.2666C6.09337 12.6933 5.34004 12.0533 4.62671 11.3533C3.92004 10.6399 3.28004 9.88659 2.71337 9.11325C2.14004 8.31325 1.68004 7.51325 1.35337 6.73992C1.00671 5.91325 0.833374 5.11325 0.833374 4.35992C0.833374 3.83992 0.926707 3.34659 1.10671 2.88658C1.29337 2.41325 1.59337 1.97325 2.00004 1.59325C2.51337 1.08659 3.10004 0.833252 3.72671 0.833252C3.98671 0.833252 4.25337 0.893252 4.48004 0.999919C4.74004 1.11992 4.96004 1.29992 5.12004 1.53992L6.66671 3.71992C6.80671 3.91325 6.91337 4.09992 6.98671 4.28658C7.07337 4.48658 7.12004 4.68659 7.12004 4.87992C7.12004 5.13325 7.04671 5.37992 6.90671 5.61325C6.80671 5.79325 6.65337 5.98659 6.46004 6.17992L6.00671 6.65325C6.01337 6.67325 6.02004 6.68658 6.02671 6.69992C6.10671 6.83992 6.26671 7.07992 6.57337 7.43992C6.90004 7.81325 7.20671 8.15325 7.51337 8.46658C7.90671 8.85325 8.23337 9.15992 8.54004 9.41325C8.92004 9.73325 9.16671 9.89325 9.31337 9.96658L9.30004 9.99992L9.78671 9.51992C9.99337 9.31325 10.1934 9.15992 10.3867 9.05992C10.7534 8.83325 11.22 8.79325 11.6867 8.98658C11.86 9.05992 12.0467 9.15992 12.2467 9.29992L14.46 10.8733C14.7067 11.0399 14.8867 11.2533 14.9934 11.5066C15.0934 11.7599 15.14 11.9933 15.14 12.2266C15.14 12.5466 15.0667 12.8666 14.9267 13.1666C14.7867 13.4666 14.6134 13.7266 14.3934 13.9666C14.0134 14.3866 13.6 14.6866 13.12 14.8799C12.66 15.0666 12.16 15.1666 11.6334 15.1666ZM3.72671 1.83325C3.36004 1.83325 3.02004 1.99325 2.69337 2.31325C2.38671 2.59992 2.17337 2.91325 2.04004 3.25325C1.90004 3.59992 1.83337 3.96659 1.83337 4.35992C1.83337 4.97992 1.98004 5.65325 2.27337 6.34659C2.57337 7.05325 2.99337 7.78658 3.52671 8.51992C4.06004 9.25325 4.66671 9.96659 5.33337 10.6399C6.00004 11.2999 6.72004 11.9133 7.46004 12.4533C8.18004 12.9799 8.92004 13.4066 9.65337 13.7133C10.7934 14.1999 11.86 14.3133 12.74 13.9466C13.08 13.8066 13.38 13.5933 13.6534 13.2866C13.8067 13.1199 13.9267 12.9399 14.0267 12.7266C14.1067 12.5599 14.1467 12.3866 14.1467 12.2133C14.1467 12.1066 14.1267 11.9999 14.0734 11.8799C14.0534 11.8399 14.0134 11.7666 13.8867 11.6799L11.6734 10.1066C11.54 10.0133 11.42 9.94658 11.3067 9.89992C11.16 9.83992 11.1 9.77992 10.8734 9.91992C10.74 9.98658 10.62 10.0866 10.4867 10.2199L9.98004 10.7199C9.72004 10.9733 9.32004 11.0333 9.01337 10.9199L8.83337 10.8399C8.56004 10.6933 8.24004 10.4666 7.88671 10.1666C7.56671 9.89325 7.22004 9.57325 6.80004 9.15992C6.47337 8.82658 6.14671 8.47325 5.80671 8.07992C5.49337 7.71325 5.26671 7.39992 5.12671 7.13992L5.04671 6.93992C5.00671 6.78658 4.99337 6.69992 4.99337 6.60659C4.99337 6.36658 5.08004 6.15325 5.24671 5.98658L5.74671 5.46658C5.88004 5.33325 5.98004 5.20658 6.04671 5.09325C6.10004 5.00659 6.12004 4.93325 6.12004 4.86659C6.12004 4.81325 6.10004 4.73325 6.06671 4.65325C6.02004 4.54659 5.94671 4.42658 5.85337 4.29992L4.30671 2.11325C4.24004 2.01992 4.16004 1.95325 4.06004 1.90659C3.95337 1.85992 3.84004 1.83325 3.72671 1.83325ZM9.30004 10.0066L9.19337 10.4599L9.37337 9.99325C9.34004 9.98658 9.31337 9.99325 9.30004 10.0066Z" fill="white"/>
</g>
</g>
</svg>
