<svg width="25" height="24" viewBox="0 0 25 24" fill="none" xmlns="http://www.w3.org/2000/svg">
<g id="camera 01">
<path id="Vector" d="M7.28008 6V6.75C7.526 6.75 7.7563 6.62944 7.89643 6.42733L7.28008 6ZM8.7426 3.8906L8.12625 3.46326V3.46326L8.7426 3.8906ZM16.2176 3.8906L16.8339 3.46326L16.2176 3.8906ZM17.6801 6L17.0637 6.42733C17.2039 6.62944 17.4342 6.75 17.6801 6.75V6ZM14.8501 13.5C14.8501 14.7152 13.817 15.75 12.4801 15.75V17.25C14.5894 17.25 16.3501 15.5985 16.3501 13.5H14.8501ZM12.4801 15.75C11.1432 15.75 10.1101 14.7152 10.1101 13.5H8.61008C8.61008 15.5985 10.3707 17.25 12.4801 17.25V15.75ZM10.1101 13.5C10.1101 12.2848 11.1432 11.25 12.4801 11.25V9.75C10.3707 9.75 8.61008 11.4015 8.61008 13.5H10.1101ZM12.4801 11.25C13.817 11.25 14.8501 12.2848 14.8501 13.5H16.3501C16.3501 11.4015 14.5894 9.75 12.4801 9.75V11.25ZM7.89643 6.42733L9.35894 4.31793L8.12625 3.46326L6.66373 5.57267L7.89643 6.42733ZM10.4733 3.75H14.4869V2.25H10.4733V3.75ZM15.6012 4.31793L17.0637 6.42733L18.2964 5.57267L16.8339 3.46326L15.6012 4.31793ZM14.4869 3.75C14.9444 3.75 15.3601 3.97011 15.6012 4.31793L16.8339 3.46326C16.3035 2.6983 15.4203 2.25 14.4869 2.25V3.75ZM9.35894 4.31793C9.6001 3.97011 10.0158 3.75 10.4733 3.75V2.25C9.53986 2.25 8.65662 2.6983 8.12625 3.46326L9.35894 4.31793ZM22.1301 10V17H23.6301V10H22.1301ZM18.7201 20.25H6.24008V21.75H18.7201V20.25ZM2.83008 17V10H1.33008V17H2.83008ZM6.24008 20.25C4.32879 20.25 2.83008 18.7675 2.83008 17H1.33008C1.33008 19.6508 3.55636 21.75 6.24008 21.75V20.25ZM22.1301 17C22.1301 18.7675 20.6314 20.25 18.7201 20.25V21.75C21.4038 21.75 23.6301 19.6508 23.6301 17H22.1301ZM18.7201 6.75C20.6314 6.75 22.1301 8.23253 22.1301 10H23.6301C23.6301 7.3492 21.4038 5.25 18.7201 5.25V6.75ZM6.24008 5.25C3.55636 5.25 1.33008 7.3492 1.33008 10H2.83008C2.83008 8.23253 4.32879 6.75 6.24008 6.75V5.25ZM6.24008 6.75H7.28008V5.25H6.24008V6.75ZM18.7201 5.25H17.6801V6.75H18.7201V5.25Z" fill="#A49595"/>
<ellipse id="Ellipse 352" cx="12.4804" cy="6" rx="1.04" ry="1" fill="#A49595"/>
</g>
</svg>
