<svg width="28" height="28" viewBox="0 0 28 28" fill="none" xmlns="http://www.w3.org/2000/svg">
<path d="M11.6552 26.5767C10.9552 26.5767 10.2902 26.2267 9.83515 25.6083L8.43518 23.7417C8.43518 23.7533 8.37683 23.7183 8.3535 23.7183H7.92184C3.93184 23.7183 1.4585 22.6333 1.4585 17.255V12.5883C1.4585 7.67668 4.45684 6.39334 6.97684 6.17168C7.25684 6.13668 7.58351 6.125 7.92184 6.125H15.3885C19.6118 6.125 21.8518 8.36501 21.8518 12.5883V17.255C21.8518 17.5933 21.8402 17.92 21.7935 18.235C21.5835 20.72 20.3002 23.7183 15.3885 23.7183H14.9218L13.4751 25.6083C13.0201 26.2267 12.3552 26.5767 11.6552 26.5767ZM7.92184 7.875C7.65351 7.875 7.39683 7.88667 7.15183 7.91C4.44517 8.14333 3.2085 9.62501 3.2085 12.5883V17.255C3.2085 21.2567 4.44517 21.9683 7.92184 21.9683H8.3885C8.9135 21.9683 9.50849 22.26 9.83515 22.68L11.2352 24.5583C11.4918 24.9083 11.8185 24.9083 12.0752 24.5583L13.4751 22.6917C13.8135 22.2367 14.3502 21.9683 14.9218 21.9683H15.3885C18.3518 21.9683 19.8335 20.72 20.0552 18.06C20.0902 17.78 20.1018 17.5233 20.1018 17.255V12.5883C20.1018 9.33334 18.6435 7.875 15.3885 7.875H7.92184Z" fill="#9DB8AE"/>
<path d="M11.6554 16.555C11.0021 16.555 10.4888 16.03 10.4888 15.3883C10.4888 14.7467 11.0138 14.2217 11.6554 14.2217C12.2971 14.2217 12.8221 14.7467 12.8221 15.3883C12.8221 16.03 12.3088 16.555 11.6554 16.555Z" fill="#9DB8AE"/>
<path d="M15.3883 16.555C14.735 16.555 14.2217 16.03 14.2217 15.3883C14.2217 14.7467 14.7467 14.2217 15.3883 14.2217C16.03 14.2217 16.555 14.7467 16.555 15.3883C16.555 16.03 16.03 16.555 15.3883 16.555Z" fill="#9DB8AE"/>
<path d="M7.93327 16.555C7.27993 16.555 6.7666 16.03 6.7666 15.3883C6.7666 14.7467 7.2916 14.2217 7.93327 14.2217C8.57494 14.2217 9.09994 14.7467 9.09994 15.3883C9.09994 16.03 8.57494 16.555 7.93327 16.555Z" fill="#9DB8AE"/>
<path d="M20.9301 19.0049C20.6967 19.0049 20.4634 18.9116 20.3001 18.7366C20.1134 18.5499 20.0318 18.2816 20.0668 18.0249C20.1018 17.7799 20.1134 17.5233 20.1134 17.2549V12.5883C20.1134 9.33326 18.6551 7.87492 15.4001 7.87492H7.93339C7.66506 7.87492 7.40842 7.88658 7.16342 7.90992C6.90676 7.94492 6.63841 7.85157 6.45174 7.67657C6.26507 7.4899 6.16006 7.23326 6.18339 6.9766C6.39339 4.4566 7.68839 1.45825 12.6001 1.45825H20.0668C24.2901 1.45825 26.5301 3.69826 26.5301 7.9216V12.5883C26.5301 17.4999 23.5318 18.7833 21.0118 19.0049C20.9768 19.0049 20.9534 19.0049 20.9301 19.0049ZM8.07342 6.12492H15.3884C19.6117 6.12492 21.8518 8.36493 21.8518 12.5883V17.1033C23.8351 16.6133 24.7684 15.1549 24.7684 12.5883V7.9216C24.7684 4.6666 23.3101 3.20825 20.0551 3.20825H12.5884C10.0218 3.20825 8.57509 4.14159 8.07342 6.12492Z" fill="#9DB8AE"/>
</svg>
