<svg width="16" height="16" viewBox="0 0 16 16" fill="none" xmlns="http://www.w3.org/2000/svg">
<path d="M7.33317 1.33325C6.01463 1.33325 4.7257 1.72425 3.62937 2.45679C2.53304 3.18933 1.67856 4.23052 1.17398 5.4487C0.669392 6.66687 0.53737 8.00731 0.794605 9.30052C1.05184 10.5937 1.68678 11.7816 2.61913 12.714C3.55148 13.6463 4.73937 14.2813 6.03257 14.5385C7.32578 14.7957 8.66622 14.6637 9.8844 14.1591C11.1026 13.6545 12.1438 12.8 12.8763 11.7037C13.6088 10.6074 13.9998 9.31846 13.9998 7.99992C13.9998 7.12444 13.8274 6.25753 13.4924 5.4487C13.1573 4.63986 12.6663 3.90493 12.0472 3.28587C11.4282 2.66682 10.6932 2.17575 9.8844 1.84072C9.07556 1.50569 8.20865 1.33325 7.33317 1.33325ZM7.33317 13.3333C6.27834 13.3333 5.24719 13.0205 4.37013 12.4344C3.49307 11.8484 2.80948 11.0154 2.40582 10.0409C2.00215 9.06636 1.89653 7.994 2.10232 6.95944C2.30811 5.92487 2.81606 4.97456 3.56194 4.22868C4.30782 3.4828 5.25813 2.97485 6.29269 2.76906C7.32726 2.56328 8.39961 2.66889 9.37415 3.07256C10.3487 3.47623 11.1816 4.15982 11.7677 5.03688C12.3537 5.91394 12.6665 6.94509 12.6665 7.99992C12.6665 9.41441 12.1046 10.771 11.1044 11.7712C10.1042 12.7713 8.74766 13.3333 7.33317 13.3333ZM7.33317 3.99992C7.15636 3.99992 6.98679 4.07016 6.86177 4.19518C6.73675 4.32021 6.66651 4.48977 6.66651 4.66659V6.84659L5.93317 6.41992C5.77935 6.33151 5.5967 6.30784 5.42542 6.35409C5.25414 6.40035 5.10825 6.51276 5.01984 6.66659C4.93143 6.82041 4.90776 7.00306 4.95402 7.17434C5.00028 7.34562 5.11268 7.49151 5.26651 7.57992L6.99984 8.57992H7.04651H7.10651C7.17612 8.62243 7.25295 8.65181 7.33317 8.66659C7.41087 8.66436 7.48758 8.64857 7.55984 8.61992H7.61317C7.68269 8.5896 7.74599 8.54665 7.79984 8.49325C7.83638 8.45367 7.86982 8.41132 7.89984 8.36659C7.89984 8.36659 7.89984 8.36659 7.89984 8.32659C7.91615 8.28764 7.92952 8.24753 7.93984 8.20659C7.94297 8.1622 7.94297 8.11764 7.93984 8.07325C7.93984 8.07325 7.93984 8.07325 7.93984 8.03325V4.66659C7.94052 4.4997 7.87857 4.33862 7.76625 4.21519C7.65392 4.09175 7.49939 4.01494 7.33317 3.99992Z" fill="#F96C05"/>
</svg>
