<svg width="246" height="249" viewBox="0 0 246 249" fill="none" xmlns="http://www.w3.org/2000/svg">
<path d="M182.235 187.408C182.46 187.818 182.58 188.277 182.582 188.744L182.604 193.202C182.613 194.022 182.401 194.828 181.989 195.537C181.578 196.245 180.983 196.829 180.267 197.228L177.421 198.795C176.701 199.186 175.889 199.376 175.071 199.345C174.252 199.313 173.457 199.062 172.77 198.616L168.712 196.087L168.66 201.837C168.664 202.583 168.371 203.299 167.847 203.829C167.323 204.358 166.609 204.658 165.864 204.662C165.119 204.666 164.402 204.373 163.873 203.849C163.343 203.324 163.043 202.611 163.039 201.866L163.017 197.407C163.008 196.588 163.221 195.782 163.632 195.073C164.044 194.365 164.639 193.78 165.354 193.382L168.201 191.815C168.92 191.424 169.732 191.233 170.551 191.265C171.369 191.296 172.164 191.548 172.852 191.994L176.894 194.744L176.961 188.772C176.958 188.147 177.163 187.539 177.545 187.044C177.926 186.549 178.461 186.195 179.066 186.038C179.671 185.881 180.311 185.93 180.885 186.178C181.459 186.425 181.934 186.857 182.235 187.405L182.235 187.408Z" fill="#8BB6EF"/>
<path d="M168.71 196.092L169.138 196.359L172.768 198.622C173.357 199.002 174.026 199.241 174.723 199.321C175.42 199.402 176.125 199.32 176.786 199.084C176.834 197.781 176.916 196.052 176.889 194.747L176.371 194.395L172.845 192C172.227 191.601 171.522 191.356 170.789 191.288C170.057 191.22 169.318 191.33 168.637 191.609C168.679 192.942 168.695 194.756 168.71 196.092Z" fill="#8388EF"/>
<path d="M134.522 2.28527C134.108 2.74636 133.816 3.30402 133.674 3.9071L132.309 9.64944C132.052 10.7028 132.084 11.8059 132.402 12.8424C132.72 13.879 133.312 14.8104 134.115 15.5386L137.317 18.4064C138.127 19.1268 139.116 19.6152 140.181 19.8201C141.246 20.0249 142.346 19.9387 143.365 19.5704L149.354 17.5262L147.696 24.9533C147.583 25.4285 147.565 25.9213 147.643 26.4035C147.72 26.8858 147.892 27.348 148.148 27.7639C148.404 28.1798 148.739 28.5412 149.135 28.8275C149.531 29.1137 149.979 29.3192 150.454 29.4322C150.93 29.5452 151.422 29.5635 151.905 29.486C152.387 29.4086 152.849 29.2369 153.265 28.9808C153.681 28.7247 154.042 28.3892 154.329 27.9934C154.615 27.5977 154.82 27.1494 154.933 26.6742L156.299 20.9319C156.555 19.8785 156.523 18.7754 156.205 17.7389C155.887 16.7024 155.295 15.7709 154.492 15.0428L151.291 12.175C150.481 11.4545 149.491 10.9661 148.426 10.7613C147.362 10.5564 146.262 10.6427 145.242 11.011L139.207 13.3446L140.91 5.62677C141.101 4.82205 141.019 3.97659 140.676 3.22404C140.332 2.4715 139.748 1.85477 139.015 1.47135C138.283 1.08792 137.443 0.959666 136.629 1.10684C135.815 1.25401 135.073 1.66822 134.521 2.28401L134.522 2.28527Z" fill="#A183E2"/>
<path d="M149.353 17.5322L148.722 17.7474L143.364 19.5763C142.49 19.8906 141.555 19.9992 140.632 19.8938C139.709 19.7883 138.822 19.4715 138.041 18.9681C138.368 17.2779 138.782 15.0213 139.208 13.3472L139.982 13.0479L145.244 11.0126C146.16 10.6828 147.142 10.5794 148.107 10.7112C149.072 10.843 149.991 11.2061 150.785 11.7695C150.336 13.4813 149.772 15.8142 149.353 17.5322Z" fill="#9762E2"/>
<path d="M25.1919 138.527C25.7986 138.24 26.3237 137.805 26.7188 137.263L30.4919 132.102C31.1901 131.158 31.6206 130.043 31.738 128.874C31.8554 127.706 31.6553 126.528 31.1588 125.464L29.1699 121.253C28.6631 120.193 27.8798 119.29 26.9026 118.639C25.9254 117.988 24.7906 117.613 23.6178 117.553L16.7808 117.081L21.5519 110.36C22.1515 109.496 22.3898 108.433 22.216 107.396C22.0422 106.359 21.4701 105.432 20.6217 104.811C19.7733 104.19 18.7159 103.926 17.6752 104.074C16.6346 104.223 15.6931 104.772 15.0519 105.605L11.2788 110.766C10.5806 111.71 10.1501 112.825 10.0327 113.993C9.9153 115.161 10.1154 116.34 10.6119 117.404L12.6009 121.615C13.1075 122.674 13.8907 123.577 14.8677 124.228C15.8447 124.879 16.9793 125.254 18.1518 125.315L25.1569 125.515L20.2179 132.507C19.6894 133.23 19.417 134.109 19.4438 135.004C19.4706 135.899 19.795 136.76 20.3658 137.451C20.9365 138.141 21.7211 138.622 22.5954 138.816C23.4698 139.011 24.3841 138.909 25.1939 138.526L25.1919 138.527Z" fill="#FFA585"/>
<path d="M16.4018 117.651L16.7818 117.082L23.6188 117.554C24.6238 117.607 25.6031 117.891 26.4806 118.383C27.3582 118.876 28.1104 119.564 28.6788 120.395C27.7548 121.777 26.7788 123.122 25.7788 124.453C25.5306 124.783 25.321 125.14 25.1538 125.518L18.1488 125.318C17.0956 125.262 16.0714 124.953 15.1633 124.417C14.2553 123.881 13.4904 123.132 12.9338 122.237C14.0988 120.715 15.2608 119.192 16.4008 117.653L16.4018 117.651Z" fill="#EF7C85"/>
<path d="M218.817 116.208L214.959 114.279C214.406 114.002 213.986 113.518 213.79 112.931C213.595 112.345 213.64 111.705 213.917 111.153L215.846 107.295C216.122 106.742 216.607 106.322 217.193 106.126C217.779 105.931 218.419 105.976 218.972 106.253L222.83 108.182C223.383 108.458 223.803 108.943 223.998 109.529C224.194 110.115 224.148 110.755 223.872 111.308L221.943 115.166C221.666 115.718 221.182 116.139 220.596 116.334C220.009 116.529 219.37 116.484 218.817 116.208Z" fill="#3E735F"/>
<path d="M60.5988 33.3766L65.6988 31.9186C66.0608 31.8151 66.4397 31.7839 66.8137 31.8269C67.1877 31.8698 67.5497 31.986 67.8788 32.1689C68.2079 32.3517 68.4978 32.5976 68.7318 32.8925C68.9659 33.1875 69.1395 33.5256 69.2428 33.8876L70.7008 38.9876C70.8044 39.3496 70.8355 39.7285 70.7926 40.1025C70.7497 40.4765 70.6335 40.8385 70.4506 41.1676C70.2678 41.4967 70.0218 41.7866 69.7269 42.0206C69.432 42.2547 69.0939 42.4283 68.7318 42.5316L63.6318 43.9896C63.2698 44.0932 62.891 44.1243 62.5169 44.0814C62.1429 44.0385 61.781 43.9223 61.4519 43.7394C61.1228 43.5565 60.8329 43.3107 60.5988 43.0157C60.3648 42.7208 60.1912 42.3827 60.0878 42.0207L58.6298 36.9206C58.421 36.1896 58.5112 35.4055 58.8804 34.7409C59.2497 34.0763 59.8678 33.5855 60.5988 33.3766Z" fill="#3E735F"/>
<path d="M76.8068 206.003L71.3608 209.147C70.5805 209.596 69.6537 209.718 68.7838 209.485C67.9138 209.252 67.1719 208.683 66.7208 207.904L63.5768 202.458C63.1272 201.677 63.0056 200.75 63.2387 199.881C63.4717 199.011 64.0404 198.269 64.8198 197.818L70.2658 194.674C71.0461 194.224 71.973 194.102 72.8429 194.335C73.7128 194.569 74.4547 195.137 74.9058 195.917L78.0498 201.363C78.4994 202.143 78.621 203.07 78.388 203.94C78.1549 204.81 77.5863 205.552 76.8068 206.003Z" fill="#78EAC4"/>
<path d="M27.5498 168.171L29.5738 173.861C29.6131 173.977 29.6754 174.084 29.757 174.176C29.8386 174.268 29.9379 174.342 30.0488 174.395L35.1048 176.673C35.2666 176.759 35.4018 176.887 35.4962 177.044C35.5905 177.201 35.6403 177.38 35.6403 177.564C35.6403 177.747 35.5905 177.926 35.4962 178.083C35.4018 178.24 35.2666 178.369 35.1048 178.455L30.0478 180.732C29.9368 180.784 29.8375 180.858 29.7559 180.95C29.6743 181.042 29.612 181.149 29.5728 181.266L27.5488 186.956C27.5011 187.129 27.3978 187.282 27.2548 187.391C27.1118 187.5 26.9371 187.559 26.7573 187.559C26.5776 187.559 26.4028 187.5 26.2599 187.391C26.1169 187.282 26.0136 187.129 25.9658 186.956L23.9418 181.266C23.9026 181.149 23.8403 181.042 23.7587 180.95C23.6771 180.859 23.5778 180.784 23.4668 180.732L18.4108 178.454C18.2488 178.368 18.1133 178.24 18.0187 178.083C17.9242 177.926 17.8742 177.746 17.8742 177.563C17.8742 177.379 17.9242 177.2 18.0187 177.043C18.1133 176.886 18.2488 176.757 18.4108 176.672L23.4668 174.394C23.5779 174.341 23.6772 174.267 23.7588 174.175C23.8405 174.083 23.9027 173.976 23.9418 173.86L25.9658 168.17C26.0136 167.996 26.1169 167.844 26.2599 167.735C26.4028 167.626 26.5776 167.567 26.7573 167.567C26.9371 167.567 27.1118 167.626 27.2548 167.735C27.3978 167.844 27.5011 167.996 27.5488 168.17L27.5498 168.171Z" fill="#CAB4EF"/>
<path d="M202.118 49.8606L203.7 54.3096C203.73 54.4007 203.779 54.4847 203.843 54.5565C203.906 54.6283 203.984 54.6865 204.071 54.7276L208.018 56.5076C208.144 56.5749 208.25 56.6752 208.324 56.7979C208.397 56.9206 208.436 57.061 208.436 57.2041C208.436 57.3472 208.397 57.4877 208.324 57.6103C208.25 57.733 208.144 57.8334 208.018 57.9006L204.065 59.6816C203.978 59.7228 203.901 59.781 203.837 59.8529C203.773 59.9247 203.724 60.0086 203.694 60.0996L202.118 64.5486C202.081 64.6842 202 64.8037 201.888 64.8889C201.776 64.9742 201.639 65.0203 201.499 65.0203C201.358 65.0203 201.222 64.9742 201.11 64.8889C200.998 64.8037 200.917 64.6842 200.88 64.5486L199.298 60.0996C199.267 60.0085 199.219 59.9246 199.155 59.8527C199.091 59.7809 199.014 59.7227 198.927 59.6816L194.974 57.9006C194.848 57.8334 194.742 57.733 194.668 57.6103C194.594 57.4877 194.556 57.3472 194.556 57.2041C194.556 57.061 194.594 56.9206 194.668 56.7979C194.742 56.6752 194.848 56.5749 194.974 56.5076L198.927 54.7266C199.014 54.6854 199.091 54.6272 199.155 54.5554C199.219 54.4835 199.267 54.3996 199.298 54.3086L200.877 49.8606C200.914 49.7251 200.995 49.6055 201.107 49.5203C201.219 49.4351 201.355 49.3889 201.496 49.3889C201.636 49.3889 201.773 49.4351 201.885 49.5203C201.997 49.6055 202.078 49.7251 202.115 49.8606H202.118Z" fill="#FFC7B6"/>
<path d="M115.901 206.567L117.483 211.016C117.513 211.107 117.562 211.191 117.626 211.262C117.689 211.334 117.767 211.393 117.854 211.434L121.801 213.214C121.927 213.281 122.033 213.381 122.107 213.504C122.18 213.627 122.219 213.767 122.219 213.91C122.219 214.053 122.18 214.194 122.107 214.316C122.033 214.439 121.927 214.539 121.801 214.607L117.848 216.388C117.761 216.429 117.684 216.487 117.62 216.559C117.556 216.631 117.507 216.715 117.477 216.806L115.901 221.255C115.864 221.39 115.783 221.51 115.671 221.595C115.559 221.68 115.422 221.726 115.282 221.726C115.141 221.726 115.005 221.68 114.893 221.595C114.781 221.51 114.7 221.39 114.663 221.255L113.081 216.806C113.05 216.715 113.002 216.631 112.938 216.559C112.874 216.487 112.797 216.429 112.71 216.388L108.757 214.607C108.631 214.539 108.525 214.439 108.451 214.316C108.377 214.194 108.339 214.053 108.339 213.91C108.339 213.767 108.377 213.627 108.451 213.504C108.525 213.381 108.631 213.281 108.757 213.214L112.71 211.433C112.797 211.391 112.874 211.333 112.938 211.261C113.002 211.19 113.05 211.106 113.081 211.015L114.66 206.567C114.697 206.431 114.778 206.311 114.89 206.226C115.002 206.141 115.138 206.095 115.279 206.095C115.419 206.095 115.556 206.141 115.668 206.226C115.78 206.311 115.861 206.431 115.898 206.567H115.901Z" fill="#FFC7B6"/>
<path d="M38.6235 73.8324C40.6918 72.9751 41.6736 70.6034 40.8162 68.5351C39.9589 66.4667 37.5872 65.485 35.5189 66.3423C33.4506 67.1997 32.4689 69.5714 33.3262 71.6397C34.1835 73.708 36.5552 74.6897 38.6235 73.8324Z" fill="#8BB6EF"/>
<path d="M217.037 139.641C218.054 139.219 218.537 138.053 218.115 137.036C217.694 136.02 216.528 135.537 215.511 135.958C214.494 136.38 214.011 137.546 214.433 138.563C214.854 139.58 216.02 140.062 217.037 139.641Z" fill="#8BB6EF"/>
<path d="M211.267 175.607C212.828 175.607 214.094 174.341 214.094 172.78C214.094 171.218 212.828 169.953 211.267 169.953C209.706 169.953 208.44 171.218 208.44 172.78C208.44 174.341 209.706 175.607 211.267 175.607Z" fill="#F9CB31"/>
<path d="M149.679 227.815C151.24 227.815 152.506 226.549 152.506 224.988C152.506 223.426 151.24 222.161 149.679 222.161C148.117 222.161 146.852 223.426 146.852 224.988C146.852 226.549 148.117 227.815 149.679 227.815Z" fill="#FFE266"/>
<path d="M107.679 26.8146C109.24 26.8146 110.506 25.549 110.506 23.9876C110.506 22.4263 109.24 21.1606 107.679 21.1606C106.118 21.1606 104.852 22.4263 104.852 23.9876C104.852 25.549 106.118 26.8146 107.679 26.8146Z" fill="#FFE266"/>
<g filter="url(#filter0_d_906_2236)">
<path d="M122.722 194.955C166.076 194.955 201.222 159.809 201.222 116.455C201.222 73.1002 166.076 37.9546 122.722 37.9546C79.3675 37.9546 44.2219 73.1002 44.2219 116.455C44.2219 159.809 79.3675 194.955 122.722 194.955Z" fill="#3E735F"/>
</g>
<defs>
<filter id="filter0_d_906_2236" x="0.221863" y="3.95459" width="245" height="245" filterUnits="userSpaceOnUse" color-interpolation-filters="sRGB">
<feFlood flood-opacity="0" result="BackgroundImageFix"/>
<feColorMatrix in="SourceAlpha" type="matrix" values="0 0 0 0 0 0 0 0 0 0 0 0 0 0 0 0 0 0 127 0" result="hardAlpha"/>
<feOffset dy="10"/>
<feGaussianBlur stdDeviation="22"/>
<feColorMatrix type="matrix" values="0 0 0 0 0.827451 0 0 0 0 0.345098 0 0 0 0 0.494118 0 0 0 0.463 0"/>
<feBlend mode="normal" in2="BackgroundImageFix" result="effect1_dropShadow_906_2236"/>
<feBlend mode="normal" in="SourceGraphic" in2="effect1_dropShadow_906_2236" result="shape"/>
</filter>
</defs>
</svg>
