<svg width="25" height="22" viewBox="0 0 25 22" fill="none" xmlns="http://www.w3.org/2000/svg">
<path fill-rule="evenodd" clip-rule="evenodd" d="M18.8902 0.345314C19.8678 0.633062 20.7728 1.10426 21.5502 1.73027C22.3276 2.35628 22.9611 3.12401 23.4122 3.9868C24.492 6.1172 24.6389 8.5596 23.8211 10.7903C23.0726 12.8363 21.8386 14.6961 20.2121 16.2297C19.1506 17.2531 18.0049 18.1966 16.7856 19.0516L16.7211 19.103C16.625 19.1637 16.517 19.206 16.4033 19.2275C16.2897 19.249 16.1726 19.2492 16.0589 19.2282C15.9451 19.2072 15.8369 19.1654 15.7404 19.1051C15.6439 19.0448 15.5611 18.9673 15.4966 18.8769C15.4274 18.7855 15.3781 18.6822 15.3514 18.5728C15.3248 18.4635 15.3214 18.3503 15.3414 18.2398C15.3614 18.1292 15.4044 18.0234 15.468 17.9285C15.5316 17.8335 15.6145 17.7512 15.7121 17.6863C16.856 16.8779 17.933 15.9896 18.934 15.0288C20.3822 13.6897 21.4844 12.0575 22.156 10.2572C22.8057 8.4566 22.6745 6.48862 21.7908 4.77788C21.4435 4.11713 20.957 3.52919 20.3608 3.04951C19.7646 2.56983 19.071 2.20834 18.3218 1.98684C17.3748 1.70434 16.3688 1.64172 15.3903 1.80437C14.4118 1.96703 13.4901 2.35008 12.7043 2.92061C12.5499 3.03042 12.3614 3.08985 12.1675 3.08985C11.9737 3.08985 11.7852 3.03042 11.6307 2.92061C10.8454 2.34929 9.92365 1.96574 8.94499 1.80306C7.96633 1.64038 6.96016 1.70345 6.01329 1.98684C5.25922 2.20352 4.56002 2.56178 3.95821 3.03983C3.3564 3.51787 2.86456 4.10571 2.51258 4.76761C1.64858 6.47678 1.5251 8.43359 2.16811 10.2264C2.84291 12.0225 3.9452 13.6508 5.3913 14.9877C7.5162 16.9355 9.86475 18.6564 12.3939 20.1189C12.7153 20.3312 12.8565 20.7171 12.7445 21.0744C12.6915 21.2476 12.5811 21.4006 12.4292 21.511C12.2773 21.6214 12.0919 21.6836 11.8997 21.6885C11.7236 21.6891 11.5515 21.6389 11.4068 21.5447C8.77184 20.0218 6.32563 18.2288 4.11322 16.1989C2.47816 14.6704 1.23997 12.8097 0.49444 10.7606C-0.295583 8.53347 -0.134148 6.1058 0.94481 3.98794C1.39578 3.12494 2.02922 2.35699 2.80659 1.73078C3.58397 1.10457 4.48904 0.633192 5.46676 0.345314C6.58313 0.0159983 7.763 -0.0793411 8.92297 0.0660345C10.0829 0.21141 11.1947 0.593952 12.1797 1.18662C13.1647 0.593952 14.2765 0.21141 15.4364 0.0660345C16.5964 -0.0793411 17.7763 0.0159983 18.8926 0.345314H18.8902ZM18.0102 8.20475C17.9908 7.74532 17.8219 7.30246 17.5262 6.93573C17.2305 6.569 16.8221 6.29599 16.356 6.15342C16.1838 6.0492 16.0533 5.89446 15.9848 5.71334C15.9163 5.53223 15.9137 5.33495 15.9774 5.1523C16.0383 4.97043 16.1629 4.81319 16.3311 4.70607C16.4992 4.59895 16.701 4.54823 16.9037 4.56213C17.6927 4.80492 18.3878 5.26068 18.9018 5.87231C19.4159 6.48393 19.726 7.22422 19.7934 8.00042C19.8234 8.22305 19.7587 8.44781 19.6132 8.62598C19.542 8.7135 19.4526 8.78669 19.3506 8.84121C19.2485 8.89573 19.1359 8.93045 19.0192 8.94333C18.781 8.97075 18.5409 8.90836 18.3517 8.76988C18.1625 8.63139 18.0397 8.42813 18.0102 8.20475Z" fill="#071529"/>
</svg>
