<svg width="25" height="24" viewBox="0 0 25 24" fill="none" xmlns="http://www.w3.org/2000/svg">
<g id="files">
<path id="Vector" d="M7.28012 18L7.28012 10C7.28012 7.79086 9.14261 6 11.4401 6L17.6801 6M7.28012 18C7.28012 20.2091 9.14261 22 11.4401 22H13.877C14.9803 22 16.0384 21.5786 16.8186 20.8284L20.6217 17.1716C21.4018 16.4214 21.8401 15.404 21.8401 14.3431V10C21.8401 7.79086 19.9776 6 17.6801 6M7.28012 18C4.98261 18 3.12012 16.2091 3.12012 14L3.12012 6C3.12012 3.79086 4.98261 2 7.28012 2L13.5201 2C15.8176 2 17.6801 3.79086 17.6801 6M15.6001 22V20C15.6001 17.7909 17.4626 16 19.7601 16H21.8401" stroke="#A49595" stroke-width="1.5" stroke-linejoin="round"/>
</g>
</svg>
