<svg width="22" height="22" viewBox="0 0 22 22" fill="none" xmlns="http://www.w3.org/2000/svg">
<g id="vuesax/linear/filter-square">
<g id="filter-square">
<path id="Vector" d="M7.48008 6.09601H14.5109C15.0976 6.09601 15.5742 6.57267 15.5742 7.15934V8.33268C15.5742 8.76351 15.3084 9.29518 15.0426 9.56101L12.7509 11.5868C12.4301 11.8527 12.2192 12.3843 12.2192 12.8152V15.1068C12.2192 15.4277 12.0084 15.8493 11.7426 16.0143L11.0001 16.4818C10.3034 16.9127 9.35008 16.4268 9.35008 15.5743V12.751C9.35008 12.3752 9.13925 11.8985 8.91925 11.6327L6.89341 9.49684C6.62758 9.24017 6.41675 8.75434 6.41675 8.43351V7.21434C6.41675 6.57267 6.89341 6.09601 7.48008 6.09601Z" stroke="#194434" stroke-width="1.5" stroke-miterlimit="10" stroke-linecap="round" stroke-linejoin="round"/>
<path id="Vector_2" d="M8.24992 20.1668H13.7499C18.3333 20.1668 20.1666 18.3335 20.1666 13.7502V8.25016C20.1666 3.66683 18.3333 1.8335 13.7499 1.8335H8.24992C3.66659 1.8335 1.83325 3.66683 1.83325 8.25016V13.7502C1.83325 18.3335 3.66659 20.1668 8.24992 20.1668Z" stroke="#194434" stroke-width="1.5" stroke-linecap="round" stroke-linejoin="round"/>
</g>
</g>
</svg>
