<svg width="24" height="24" viewBox="0 0 24 24" fill="none" xmlns="http://www.w3.org/2000/svg">
<g id="vuesax/outline/flag-2">
<g id="flag-2">
<path id="Vector" d="M6.4502 22.75C6.0402 22.75 5.7002 22.41 5.7002 22V2C5.7002 1.59 6.0402 1.25 6.4502 1.25C6.8602 1.25 7.2002 1.59 7.2002 2V22C7.2002 22.41 6.8602 22.75 6.4502 22.75Z" fill="white"/>
<path id="Vector_2" d="M6.95005 17.7501C6.67005 17.7501 6.41005 17.6001 6.28005 17.3301C6.10005 16.9601 6.25005 16.5101 6.62005 16.3301L14.92 12.2301C16.14 11.6001 16.83 10.8401 16.8 10.1301C16.77 9.44011 16.03 8.73011 14.76 8.19011L6.66005 4.69011C6.27005 4.52011 6.10005 4.08011 6.26005 3.70011C6.42005 3.32011 6.87005 3.14011 7.25005 3.31011L15.35 6.81011C17.85 7.87011 18.27 9.31011 18.3 10.0701C18.35 11.4001 17.39 12.6401 15.6 13.5601L7.29005 17.6701C7.18005 17.7301 7.06005 17.7501 6.95005 17.7501Z" fill="white"/>
</g>
</g>
</svg>
