<svg width="76" height="76" viewBox="0 0 76 76" fill="none" xmlns="http://www.w3.org/2000/svg">
<g id="vuesax/outline/timer">
<g id="timer">
<path id="Vector" d="M48.26 72.0416H27.74C21.755 72.0416 17.385 69.54 15.7067 65.2333C13.965 60.7366 15.58 55.1633 19.76 51.395L34.4533 38L19.76 24.605C15.58 20.8366 13.965 15.2633 15.7067 10.7666C17.385 6.42831 21.755 3.95831 27.74 3.95831H48.26C54.245 3.95831 58.615 6.45998 60.2933 10.7666C62.035 15.2633 60.42 20.8366 56.24 24.605L41.5467 38L56.2717 51.395C60.42 55.1633 62.0667 60.7366 60.325 65.2333C58.615 69.54 54.245 72.0416 48.26 72.0416ZM38 41.1983L22.9583 54.8783C20.2983 57.3166 19.1267 60.8633 20.14 63.4916C21.09 65.93 23.7817 67.2916 27.74 67.2916H48.26C52.2183 67.2916 54.91 65.9616 55.86 63.4916C56.8733 60.8633 55.7333 57.3166 53.0417 54.8783L38 41.1983ZM27.74 8.70831C23.7817 8.70831 21.09 10.0383 20.14 12.5083C19.1267 15.1366 20.2667 18.6833 22.9583 21.1216L38 34.8016L53.0417 21.1216C55.7017 18.6833 56.8733 15.1366 55.86 12.5083C54.91 10.07 52.2183 8.70831 48.26 8.70831H27.74Z" fill="white"/>
</g>
</g>
</svg>
