<svg width="26" height="26" viewBox="0 0 26 26" fill="none" xmlns="http://www.w3.org/2000/svg">
<g id="vuesax/outline/note">
<g id="note">
<path id="Vector" d="M8.66699 6.22925C8.22283 6.22925 7.85449 5.86091 7.85449 5.41675V2.16675C7.85449 1.72258 8.22283 1.35425 8.66699 1.35425C9.11116 1.35425 9.47949 1.72258 9.47949 2.16675V5.41675C9.47949 5.86091 9.11116 6.22925 8.66699 6.22925Z" fill="white"/>
<path id="Vector_2" d="M17.333 6.22925C16.8888 6.22925 16.5205 5.86091 16.5205 5.41675V2.16675C16.5205 1.72258 16.8888 1.35425 17.333 1.35425C17.7772 1.35425 18.1455 1.72258 18.1455 2.16675V5.41675C18.1455 5.86091 17.7772 6.22925 17.333 6.22925Z" fill="white"/>
<path id="Vector_3" d="M16.2497 14.8958H7.58301C7.13884 14.8958 6.77051 14.5274 6.77051 14.0833C6.77051 13.6391 7.13884 13.2708 7.58301 13.2708H16.2497C16.6938 13.2708 17.0622 13.6391 17.0622 14.0833C17.0622 14.5274 16.6938 14.8958 16.2497 14.8958Z" fill="white"/>
<path id="Vector_4" d="M12.9997 19.2292H7.58301C7.13884 19.2292 6.77051 18.8609 6.77051 18.4167C6.77051 17.9726 7.13884 17.6042 7.58301 17.6042H12.9997C13.4438 17.6042 13.8122 17.9726 13.8122 18.4167C13.8122 18.8609 13.4438 19.2292 12.9997 19.2292Z" fill="white"/>
<path id="Vector_5" d="M16.25 24.6459H9.75C3.66167 24.6459 2.4375 21.7751 2.4375 17.1384V10.4542C2.4375 5.31925 4.17083 3.22841 8.62333 2.97925H17.3333C17.3442 2.97925 17.3658 2.97925 17.3767 2.97925C21.8292 3.22841 23.5625 5.31925 23.5625 10.4542V17.1384C23.5625 21.7751 22.3383 24.6459 16.25 24.6459ZM8.66667 4.60425C5.63333 4.77758 4.0625 5.73091 4.0625 10.4542V17.1384C4.0625 21.2876 4.85333 23.0209 9.75 23.0209H16.25C21.1467 23.0209 21.9375 21.2876 21.9375 17.1384V10.4542C21.9375 5.74175 20.3775 4.77758 17.3117 4.60425H8.66667Z" fill="white"/>
</g>
</g>
</svg>
