<svg width="26" height="27" viewBox="0 0 26 27" fill="none" xmlns="http://www.w3.org/2000/svg">
<path d="M16.7436 14.2675C17.7707 13.4594 18.5203 12.3513 18.8883 11.0974C19.2563 9.84337 19.2243 8.50588 18.7967 7.27095C18.3691 6.03602 17.5673 4.96506 16.5027 4.20707C15.4381 3.44908 14.1638 3.04175 12.8569 3.04175C11.5501 3.04175 10.2757 3.44908 9.21114 4.20707C8.14657 4.96506 7.34472 6.03602 6.91715 7.27095C6.48959 8.50588 6.45756 9.84337 6.82554 11.0974C7.19351 12.3513 7.94319 13.4594 8.97026 14.2675C7.21034 14.9726 5.67475 16.1421 4.5272 17.6512C3.37964 19.1604 2.66314 20.9527 2.45407 22.837C2.43894 22.9746 2.45105 23.1138 2.48972 23.2467C2.52839 23.3796 2.59285 23.5036 2.67943 23.6116C2.85428 23.8296 3.10861 23.9693 3.38645 23.9999C3.6643 24.0305 3.94291 23.9494 4.16098 23.7745C4.37906 23.5997 4.51875 23.3454 4.54931 23.0675C4.77935 21.0196 5.75584 19.1283 7.29221 17.7548C8.82857 16.3814 10.8171 15.6221 12.8779 15.6221C14.9387 15.6221 16.9272 16.3814 18.4636 17.7548C19.9999 19.1283 20.9764 21.0196 21.2065 23.0675C21.2349 23.3249 21.3578 23.5627 21.5512 23.7349C21.7447 23.907 21.9951 24.0015 22.2541 23.9999H22.3693C22.6439 23.9683 22.8949 23.8294 23.0676 23.6136C23.2403 23.3977 23.3207 23.1224 23.2912 22.8475C23.0812 20.9578 22.3608 19.1609 21.2073 17.6494C20.0539 16.1379 18.5108 14.9689 16.7436 14.2675ZM12.8569 13.5237C12.0281 13.5237 11.2179 13.2779 10.5288 12.8175C9.83971 12.357 9.3026 11.7026 8.98543 10.9368C8.66827 10.1711 8.58528 9.32857 8.74697 8.5157C8.90866 7.70283 9.30777 6.95615 9.89382 6.37011C10.4799 5.78406 11.2265 5.38495 12.0394 5.22326C12.8523 5.06157 13.6948 5.14456 14.4606 5.46172C15.2263 5.77889 15.8807 6.316 16.3412 7.00512C16.8016 7.69424 17.0474 8.50442 17.0474 9.33322C17.0474 10.4446 16.6059 11.5105 15.82 12.2963C15.0342 13.0822 13.9683 13.5237 12.8569 13.5237Z" fill="#9DB8AE"/>
</svg>
