<svg width="20" height="20" viewBox="0 0 20 20" fill="none" xmlns="http://www.w3.org/2000/svg">
<g id="vuesax/outline/repeate-music">
<g id="repeate-music">
<path id="Vector" d="M3.25842 14.3166C3.10008 14.3166 2.94175 14.2583 2.81675 14.1333C1.67509 12.9833 1.04175 11.4666 1.04175 9.85829C1.04175 6.51662 3.75008 3.79994 7.08341 3.79994L12.1418 3.81662L11.2334 2.94992C10.9834 2.70825 10.9751 2.31659 11.2168 2.06659C11.4584 1.81659 11.8501 1.80829 12.1001 2.04996L14.1334 3.99993C14.3168 4.17493 14.3751 4.44993 14.2834 4.68327C14.1917 4.9166 13.9584 5.07496 13.7001 5.07496L7.07509 5.05828C4.43342 5.05828 2.28342 7.21663 2.28342 9.86663C2.28342 11.1416 2.78341 12.3499 3.69174 13.2582C3.93341 13.4999 3.93341 13.8999 3.69174 14.1416C3.57508 14.2582 3.41675 14.3166 3.25842 14.3166Z" fill="#292D32"/>
<path id="Vector_2" d="M8.33325 18.1249C8.17492 18.1249 8.02491 18.0665 7.89991 17.9499L5.86658 15.9999C5.68325 15.8249 5.62492 15.5499 5.71659 15.3166C5.80825 15.0832 6.04158 14.9249 6.29992 14.9249L12.9249 14.9416C15.5666 14.9416 17.7166 12.7832 17.7166 10.1332C17.7166 8.85821 17.2166 7.64992 16.3083 6.74158C16.0666 6.49992 16.0666 6.09992 16.3083 5.85825C16.5499 5.61659 16.9499 5.61659 17.1916 5.85825C18.3333 7.00825 18.9666 8.52487 18.9666 10.1332C18.9666 13.4749 16.2582 16.1916 12.9249 16.1916L7.86659 16.1749L8.77492 17.0416C9.02492 17.2832 9.03325 17.6749 8.79159 17.9249C8.65825 18.0582 8.49992 18.1249 8.33325 18.1249Z" fill="#292D32"/>
</g>
</g>
</svg>
