<svg width="12" height="12" viewBox="0 0 12 12" fill="none" xmlns="http://www.w3.org/2000/svg">
<path d="M11.8528 11.1639L9.79015 9.14737L9.74215 9.07357C9.65153 8.9834 9.5289 8.93278 9.40107 8.93278C9.27324 8.93278 9.15061 8.9834 9.05999 9.07357C7.3075 10.6815 4.60646 10.7691 2.74898 9.27756C0.891489 7.78658 0.453516 5.17962 1.72544 3.18584C2.99736 1.19207 5.5844 0.430075 7.77127 1.40506C9.95814 2.38005 11.0651 4.79022 10.3595 7.03659C10.3347 7.11642 10.3318 7.20143 10.351 7.28278C10.3702 7.36413 10.4109 7.43886 10.4687 7.49919C10.5275 7.56046 10.6012 7.60548 10.6826 7.62987C10.7639 7.65426 10.8502 7.65719 10.9331 7.63838C11.0156 7.6203 11.0919 7.58085 11.1543 7.52399C11.2168 7.46712 11.2632 7.39484 11.2889 7.31439C12.1324 4.64922 10.8581 1.78066 8.28904 0.564474C5.71999 -0.651111 2.62838 0.150479 1.01388 2.45085C-0.601819 4.75182 -0.25504 7.86098 1.82983 9.76776C3.9141 11.6745 7.10951 11.8059 9.35037 10.0774L11.1767 11.8623C11.2682 11.9506 11.3905 12 11.5177 12C11.645 12 11.7672 11.9506 11.8588 11.8623C11.9035 11.8185 11.939 11.7663 11.9633 11.7086C11.9875 11.6509 12 11.5889 12 11.5263C12 11.4638 11.9875 11.4018 11.9633 11.3441C11.939 11.2864 11.9035 11.2341 11.8588 11.1903L11.8528 11.1645V11.1639Z" fill="#071529"/>
</svg>
