<svg width="25" height="25" viewBox="0 0 25 25" fill="none" xmlns="http://www.w3.org/2000/svg">
<g id="vuesax/outline/shield-tick">
<g id="shield-tick">
<path id="Vector" d="M12.5003 23.7083C11.3649 23.7083 10.2399 23.375 9.35449 22.7187L4.87533 19.375C3.68783 18.4896 2.76074 16.6354 2.76074 15.1667V7.41667C2.76074 5.8125 3.93783 4.10417 5.44824 3.54167L10.6462 1.59375C11.6774 1.20833 13.3024 1.20833 14.3337 1.59375L19.5316 3.54167C21.042 4.10417 22.2191 5.8125 22.2191 7.41667V15.1562C22.2191 16.6354 21.292 18.4792 20.1045 19.3646L15.6253 22.7083C14.7607 23.375 13.6357 23.7083 12.5003 23.7083ZM11.1982 3.0625L6.00033 5.01042C5.11491 5.34375 4.33366 6.46875 4.33366 7.42708V15.1667C4.33366 16.1562 5.03158 17.5417 5.81283 18.125L10.292 21.4688C11.4899 22.3646 13.5107 22.3646 14.7191 21.4688L19.1982 18.125C19.9899 17.5312 20.6774 16.1562 20.6774 15.1667V7.41667C20.6774 6.46875 19.8962 5.34375 19.0107 5L13.8128 3.05208C13.1045 2.80208 11.8962 2.80208 11.1982 3.0625Z" fill="white"/>
<path id="Vector_2" d="M11.1042 14.823C10.9062 14.823 10.7083 14.7501 10.5521 14.5938L8.875 12.9167C8.57292 12.6147 8.57292 12.1147 8.875 11.8126C9.17708 11.5105 9.67708 11.5105 9.97917 11.8126L11.1042 12.9376L15.0312 9.0105C15.3333 8.70841 15.8333 8.70841 16.1354 9.0105C16.4375 9.31258 16.4375 9.81258 16.1354 10.1147L11.6562 14.5938C11.5 14.7501 11.3021 14.823 11.1042 14.823Z" fill="white"/>
</g>
</g>
</svg>
