<svg width="25" height="24" viewBox="0 0 25 24" fill="none" xmlns="http://www.w3.org/2000/svg">
<g id="vuesax/outline/magic-star">
<g id="magic-star">
<path id="Vector" d="M13.3735 22.5C12.7735 22.5 11.8436 22.21 10.9536 20.75L9.19355 17.9C9.02355 17.62 8.50354 17.35 8.18354 17.37L4.84352 17.54C2.84352 17.64 2.14357 16.81 1.89357 16.31C1.64357 15.81 1.42352 14.74 2.72352 13.22L4.70356 10.92C4.90356 10.68 5.01353 10.16 4.92353 9.86002L3.91352 6.63004C3.40352 5.01004 3.97353 4.14004 4.35353 3.76004C4.73353 3.38004 5.61353 2.83003 7.23353 3.37003L10.1835 4.34003C10.4535 4.43003 10.9535 4.35003 11.1835 4.19003L14.2636 1.97003C15.6736 0.950032 16.6935 1.22003 17.1635 1.47003C17.6335 1.72003 18.4335 2.40005 18.4035 4.14005L18.3335 7.93002C18.3235 8.21002 18.5535 8.67003 18.7735 8.84003L21.2536 10.72C22.6036 11.75 22.6535 12.78 22.5635 13.31C22.4735 13.84 22.0736 14.8 20.4536 15.3L17.2235 16.31C16.9235 16.4 16.5535 16.79 16.4735 17.09L15.7036 20.03C15.1936 21.96 14.1936 22.39 13.6336 22.47C13.5636 22.49 13.4735 22.5 13.3735 22.5ZM8.21351 15.87C9.07351 15.87 10.0235 16.39 10.4635 17.11L12.2235 19.96C12.7235 20.78 13.1735 21.03 13.4135 20.99C13.6435 20.96 14.0036 20.58 14.2536 19.66L15.0235 16.72C15.2335 15.92 15.9835 15.13 16.7735 14.89L20.0036 13.88C20.6236 13.69 21.0235 13.38 21.0835 13.06C21.1435 12.74 20.8635 12.32 20.3435 11.92L17.8635 10.04C17.2535 9.58004 16.8136 8.66002 16.8236 7.90002L16.8936 4.11002C16.9036 3.44002 16.7436 2.94004 16.4536 2.79004C16.1636 2.64004 15.6735 2.79002 15.1235 3.18002L12.0435 5.40002C11.4335 5.84002 10.4236 6.00004 9.69355 5.76004L6.74354 4.79004C6.12354 4.59004 5.62357 4.60002 5.39357 4.83002C5.16357 5.06002 5.14351 5.56002 5.33351 6.18002L6.34352 9.41003C6.59352 10.2 6.37351 11.27 5.83351 11.89L3.85353 14.19C3.22353 14.92 3.12353 15.43 3.23353 15.64C3.33353 15.85 3.81356 16.08 4.76356 16.03L8.10353 15.86C8.14353 15.87 8.18351 15.87 8.21351 15.87Z" fill="#F9CB31"/>
<path id="Vector_2" d="M22.2731 22.75C22.0831 22.75 21.8931 22.68 21.7431 22.53L18.7131 19.5C18.4231 19.21 18.4231 18.73 18.7131 18.44C19.0031 18.15 19.4831 18.15 19.7731 18.44L22.8031 21.47C23.0931 21.76 23.0931 22.24 22.8031 22.53C22.6531 22.68 22.4631 22.75 22.2731 22.75Z" fill="#F9CB31"/>
</g>
</g>
</svg>
