<svg width="26" height="11" viewBox="0 0 26 11" fill="none" xmlns="http://www.w3.org/2000/svg">
<path d="M7.748 3.5H5.954C5.89333 2.55533 5.24333 2.083 4.004 2.083C3.51 2.083 3.11567 2.18267 2.821 2.382C2.535 2.58133 2.392 2.85 2.392 3.188C2.392 3.51733 2.51333 3.76433 2.756 3.929C2.99867 4.09367 3.46667 4.241 4.16 4.371L5.616 4.644C6.474 4.80867 7.098 5.09033 7.488 5.489C7.878 5.88767 8.073 6.451 8.073 7.179C8.073 8.17567 7.69167 8.934 6.929 9.454C6.27033 9.91333 5.382 10.143 4.264 10.143C2.99 10.143 2.01933 9.84833 1.352 9.259C0.771333 8.74767 0.455 8.037 0.403 7.127H2.262C2.33133 8.115 3.029 8.609 4.355 8.609C4.94433 8.609 5.40367 8.505 5.733 8.297C6.071 8.08033 6.24 7.78567 6.24 7.413C6.24 7.049 6.10567 6.76733 5.837 6.568C5.577 6.36867 5.12633 6.20833 4.485 6.087L3.185 5.84C2.24033 5.66667 1.56433 5.39367 1.157 5.021C0.758333 4.63967 0.559 4.09367 0.559 3.383C0.559 2.421 0.91 1.693 1.612 1.199C2.21867 0.765666 3.042 0.548999 4.082 0.548999C5.33867 0.548999 6.28333 0.834999 6.916 1.407C7.462 1.90967 7.73933 2.60733 7.748 3.5ZM13.5496 2.291V10H11.6386V2.291H8.80455V0.692H16.2536V2.291H13.5496ZM25.1913 3.799H23.3713C23.1199 2.72433 22.4569 2.187 21.3823 2.187C20.5763 2.187 19.9566 2.50767 19.5233 3.149C19.1506 3.71233 18.9643 4.462 18.9643 5.398C18.9643 6.45533 19.1983 7.26133 19.6663 7.816C20.0736 8.29267 20.6239 8.531 21.3173 8.531C21.9153 8.531 22.3919 8.375 22.7473 8.063C23.1026 7.751 23.3106 7.30467 23.3713 6.724H25.2303C25.1696 7.85067 24.7363 8.72167 23.9303 9.337C23.2369 9.87433 22.3486 10.143 21.2653 10.143C19.8786 10.143 18.8039 9.65767 18.0413 8.687C17.3826 7.84633 17.0533 6.737 17.0533 5.359C17.0533 3.78167 17.4866 2.55967 18.3533 1.693C19.1073 0.930333 20.0909 0.548999 21.3043 0.548999C22.7429 0.548999 23.8306 1.03 24.5673 1.992C24.9313 2.46867 25.1393 3.071 25.1913 3.799Z" fill="#3144F0"/>
</svg>
