<svg width="21" height="21" viewBox="0 0 21 21" fill="none" xmlns="http://www.w3.org/2000/svg">
<g id="stopwatch / 24 / Outline">
<path id="Vector" d="M15.8227 7.7163L16.6066 6.94105C16.7688 6.77885 16.8599 6.55886 16.8599 6.32947C16.8599 6.10008 16.7688 5.88009 16.6066 5.71788C16.4444 5.55568 16.2244 5.46456 15.995 5.46456C15.7656 5.46456 15.5456 5.55568 15.3834 5.71788L14.6082 6.50175C13.401 5.56788 11.9179 5.06119 10.3917 5.06119C8.86545 5.06119 7.38239 5.56788 6.1752 6.50175L5.39134 5.70927C5.228 5.54707 5.00691 5.4564 4.77671 5.45721C4.54651 5.45801 4.32607 5.55023 4.16387 5.71358C4.00166 5.87692 3.91099 6.09801 3.9118 6.32821C3.91261 6.5584 4.00483 6.77885 4.16817 6.94105L4.96065 7.72491C4.01572 8.92874 3.503 10.4153 3.50491 11.9457C3.50209 13.0443 3.762 14.1277 4.26295 15.1055C4.76389 16.0833 5.49136 16.9271 6.38468 17.5666C7.278 18.2061 8.31128 18.6228 9.39835 18.7818C10.4854 18.9409 11.5947 18.8377 12.6338 18.4809C13.6729 18.1242 14.6117 17.5241 15.3717 16.7308C16.1318 15.9376 16.6912 14.9741 17.0032 13.9207C17.3153 12.8673 17.371 11.7546 17.1656 10.6753C16.9603 9.59601 16.4998 8.58148 15.8227 7.7163ZM10.396 17.114C9.3738 17.114 8.37456 16.8109 7.52463 16.243C6.67471 15.6751 6.01227 14.8679 5.62109 13.9235C5.22991 12.9791 5.12756 11.94 5.32699 10.9374C5.52641 9.93486 6.01864 9.01396 6.74144 8.29115C7.46424 7.56835 8.38515 7.07612 9.38771 6.8767C10.3903 6.67728 11.4294 6.77963 12.3738 7.1708C13.3182 7.56198 14.1254 8.22442 14.6933 9.07434C15.2612 9.92427 15.5643 10.9235 15.5643 11.9457C15.5643 13.3164 15.0198 14.631 14.0505 15.6003C13.0813 16.5695 11.7667 17.114 10.396 17.114ZM8.67322 4.19323H12.1188C12.3472 4.19323 12.5663 4.10248 12.7279 3.94094C12.8894 3.7794 12.9802 3.5603 12.9802 3.33185C12.9802 3.10339 12.8894 2.88429 12.7279 2.72275C12.5663 2.56121 12.3472 2.47046 12.1188 2.47046H8.67322C8.44477 2.47046 8.22567 2.56121 8.06413 2.72275C7.90259 2.88429 7.81184 3.10339 7.81184 3.33185C7.81184 3.5603 7.90259 3.7794 8.06413 3.94094C8.22567 4.10248 8.44477 4.19323 8.67322 4.19323ZM11.2574 9.36155C11.2574 9.13309 11.1666 8.914 11.0051 8.75246C10.8435 8.59091 10.6244 8.50016 10.396 8.50016C10.1675 8.50016 9.94844 8.59091 9.7869 8.75246C9.62536 8.914 9.53461 9.13309 9.53461 9.36155V10.9896C9.33956 11.164 9.20209 11.3936 9.14037 11.6479C9.07865 11.9022 9.0956 12.1692 9.18897 12.4137C9.28234 12.6581 9.44774 12.8685 9.66327 13.0169C9.8788 13.1653 10.1343 13.2447 10.396 13.2447C10.6577 13.2447 10.9132 13.1653 11.1287 13.0169C11.3443 12.8685 11.5096 12.6581 11.603 12.4137C11.6964 12.1692 11.7133 11.9022 11.6516 11.6479C11.5899 11.3936 11.4524 11.164 11.2574 10.9896V9.36155Z" fill="white"/>
</g>
</svg>
