<svg width="26" height="26" viewBox="0 0 26 26" fill="none" xmlns="http://www.w3.org/2000/svg">
<g id="vuesax/outline/wallet">
<g id="wallet">
<path id="Vector" d="M18.417 24.6458H7.58366C3.85699 24.6458 1.35449 22.1433 1.35449 18.4166V12.9999C1.35449 9.66325 3.41283 7.24743 6.60866 6.84659C6.91199 6.80326 7.24783 6.77075 7.58366 6.77075H18.417C18.677 6.77075 19.0128 6.78158 19.3595 6.83575C22.5553 7.20408 24.6462 9.63075 24.6462 12.9999V18.4166C24.6462 22.1433 22.1437 24.6458 18.417 24.6458ZM7.58366 8.39575C7.32366 8.39575 7.07449 8.41741 6.82533 8.44991C4.44199 8.75324 2.97949 10.4866 2.97949 12.9999V18.4166C2.97949 21.2116 4.78866 23.0208 7.58366 23.0208H18.417C21.212 23.0208 23.0212 21.2116 23.0212 18.4166V12.9999C23.0212 10.4649 21.537 8.72076 19.132 8.43909C18.872 8.39576 18.6445 8.39575 18.417 8.39575H7.58366Z" fill="white"/>
<path id="Vector_2" d="M6.70605 8.4609C6.44605 8.4609 6.20771 8.34174 6.04521 8.12507C5.86105 7.8759 5.83938 7.5509 5.98021 7.28007C6.16438 6.91174 6.42438 6.55424 6.76021 6.22924L10.281 2.69756C12.0794 0.910059 15.0044 0.910059 16.8027 2.69756L18.6985 4.61508C19.5002 5.40591 19.9877 6.46758 20.0419 7.59425C20.0527 7.84341 19.9552 8.08172 19.771 8.24422C19.5869 8.40672 19.3377 8.48258 19.0994 8.43924C18.8827 8.40674 18.6552 8.3959 18.4169 8.3959H7.58355C7.32355 8.3959 7.07438 8.41756 6.82521 8.45006C6.79271 8.46089 6.74938 8.4609 6.70605 8.4609ZM8.51521 6.7709H18.2219C18.081 6.40257 17.8535 6.06674 17.5502 5.76341L15.6435 3.83508C14.4844 2.68675 12.5885 2.68675 11.4185 3.83508L8.51521 6.7709Z" fill="white"/>
<path id="Vector_3" d="M23.8337 18.6876H20.5837C18.937 18.6876 17.6045 17.3551 17.6045 15.7084C17.6045 14.0617 18.937 12.7292 20.5837 12.7292H23.8337C24.2778 12.7292 24.6462 13.0976 24.6462 13.5417C24.6462 13.9859 24.2778 14.3542 23.8337 14.3542H20.5837C19.8362 14.3542 19.2295 14.9609 19.2295 15.7084C19.2295 16.4559 19.8362 17.0626 20.5837 17.0626H23.8337C24.2778 17.0626 24.6462 17.4309 24.6462 17.8751C24.6462 18.3192 24.2778 18.6876 23.8337 18.6876Z" fill="white"/>
</g>
</g>
</svg>
